<svg xmlns="http://www.w3.org/2000/svg" xmlns:xlink="http://www.w3.org/1999/xlink" width="1080" zoomAndPan="magnify" viewBox="0 0 810 284.999983" height="380" preserveAspectRatio="xMidYMid meet" version="1.2"><defs><clipPath id="fbe98b7ec3"><path d="M 282 191.828125 L 630 191.828125 L 630 262.332031 L 282 262.332031 Z M 282 191.828125 "/></clipPath><clipPath id="58d4d76e27"><path d="M 637 67 L 778 67 L 778 176 L 637 176 Z M 637 67 "/></clipPath><clipPath id="555a473654"><path d="M 678.253906 22.484375 L 813.054688 97.660156 L 765.722656 182.53125 L 630.921875 107.355469 Z M 678.253906 22.484375 "/></clipPath><clipPath id="0f4267f8b1"><path d="M 678.253906 22.484375 L 813.054688 97.660156 L 765.722656 182.53125 L 630.921875 107.355469 Z M 678.253906 22.484375 "/></clipPath><clipPath id="44538622cb"><path d="M 23.847656 23.433594 L 150.5625 23.433594 L 150.5625 94.890625 L 23.847656 94.890625 Z M 23.847656 23.433594 "/></clipPath></defs><g id="f78a26f7fc"><rect x="0" width="810" y="0" height="284.999983" style="fill:#ffffff;fill-opacity:1;stroke:none;"/><rect x="0" width="810" y="0" height="284.999983" style="fill:#ffffff;fill-opacity:1;stroke:none;"/><g clip-rule="nonzero" clip-path="url(#fbe98b7ec3)"><path style=" stroke:none;fill-rule:nonzero;fill:#262261;fill-opacity:1;" d="M 629.828125 205.808594 L 629.828125 225.296875 C 629.828125 226.511719 629.769531 227.722656 629.648438 228.929688 C 629.53125 230.136719 629.351562 231.335938 629.117188 232.527344 C 628.878906 233.71875 628.585938 234.894531 628.230469 236.054688 C 627.878906 237.214844 627.472656 238.359375 627.007812 239.480469 C 626.542969 240.601562 626.023438 241.695312 625.453125 242.765625 C 624.878906 243.835938 624.257812 244.875 623.582031 245.886719 C 622.910156 246.894531 622.1875 247.867188 621.417969 248.808594 C 620.644531 249.746094 619.832031 250.644531 618.972656 251.5 C 618.117188 252.359375 617.21875 253.175781 616.277344 253.945312 C 615.339844 254.714844 614.367188 255.4375 613.359375 256.109375 C 612.347656 256.785156 611.308594 257.40625 610.238281 257.980469 C 609.167969 258.550781 608.070312 259.070312 606.949219 259.535156 C 605.828125 260 604.6875 260.40625 603.527344 260.761719 C 602.363281 261.113281 601.1875 261.40625 600 261.644531 C 598.808594 261.878906 597.609375 262.058594 596.402344 262.175781 C 595.195312 262.296875 593.984375 262.355469 592.769531 262.355469 L 315.824219 262.355469 C 297.605469 262.351562 282.417969 247.863281 282.179688 229.644531 C 282.167969 228.550781 282.207031 227.457031 282.300781 226.367188 C 282.394531 225.277344 282.539062 224.191406 282.742188 223.117188 C 282.941406 222.039062 283.195312 220.976562 283.503906 219.925781 C 283.808594 218.875 284.167969 217.839844 284.578125 216.824219 C 284.984375 215.808594 285.445312 214.816406 285.949219 213.847656 C 286.457031 212.875 287.011719 211.933594 287.613281 211.015625 C 288.214844 210.101562 288.859375 209.21875 289.546875 208.367188 C 290.234375 207.515625 290.964844 206.699219 291.734375 205.921875 C 292.5 205.140625 293.308594 204.402344 294.148438 203.703125 C 294.992188 203.003906 295.867188 202.347656 296.773438 201.734375 C 297.683594 201.121094 298.617188 200.554688 299.582031 200.035156 C 300.542969 199.515625 301.53125 199.042969 302.542969 198.621094 C 303.550781 198.199219 304.578125 197.828125 305.625 197.507812 C 306.675781 197.1875 307.734375 196.917969 308.808594 196.703125 C 309.882812 196.488281 310.960938 196.328125 312.050781 196.21875 C 313.140625 196.109375 314.234375 196.058594 315.328125 196.058594 C 315.597656 196.058594 315.867188 196.070312 316.132812 196.078125 L 316.25 191.828125 L 325.898438 200.71875 L 315.777344 209.066406 L 315.902344 204.515625 L 315.894531 204.507812 C 315.078125 204.488281 314.265625 204.511719 313.453125 204.574219 C 312.640625 204.632812 311.832031 204.738281 311.03125 204.878906 C 310.226562 205.019531 309.433594 205.203125 308.648438 205.421875 C 307.863281 205.644531 307.09375 205.902344 306.335938 206.199219 C 305.574219 206.496094 304.832031 206.828125 304.109375 207.199219 C 303.382812 207.570312 302.675781 207.976562 301.992188 208.414062 C 301.304688 208.855469 300.640625 209.328125 300.003906 209.835938 C 299.363281 210.339844 298.753906 210.875 298.167969 211.441406 C 297.582031 212.007812 297.023438 212.601562 296.496094 213.226562 C 295.96875 213.847656 295.476562 214.492188 295.011719 215.164062 C 294.546875 215.832031 294.121094 216.523438 293.726562 217.238281 C 293.328125 217.949219 292.972656 218.679688 292.648438 219.429688 C 292.328125 220.175781 292.042969 220.941406 291.792969 221.714844 C 291.546875 222.492188 291.339844 223.28125 291.171875 224.078125 C 291 224.875 290.871094 225.675781 290.78125 226.488281 C 290.691406 227.296875 290.644531 228.109375 290.632812 228.925781 C 290.625 229.738281 290.65625 230.550781 290.726562 231.363281 C 290.796875 232.175781 290.910156 232.980469 291.058594 233.78125 C 291.210938 234.582031 291.402344 235.375 291.628906 236.15625 C 291.859375 236.9375 292.128906 237.707031 292.433594 238.460938 C 292.738281 239.21875 293.078125 239.957031 293.457031 240.679688 C 293.835938 241.398438 294.25 242.101562 294.699219 242.78125 C 295.144531 243.460938 295.625 244.121094 296.136719 244.753906 C 296.652344 245.386719 297.195312 245.992188 297.765625 246.570312 C 298.339844 247.152344 298.941406 247.703125 299.566406 248.222656 C 300.195312 248.742188 300.847656 249.230469 301.519531 249.683594 C 302.195312 250.140625 302.894531 250.5625 303.609375 250.949219 C 304.328125 251.335938 305.0625 251.6875 305.8125 252 C 306.566406 252.316406 307.332031 252.589844 308.109375 252.828125 C 308.890625 253.066406 309.679688 253.265625 310.476562 253.425781 C 311.277344 253.585938 312.082031 253.707031 312.890625 253.789062 C 313.703125 253.867188 314.515625 253.910156 315.332031 253.910156 C 315.488281 253.910156 315.648438 253.90625 315.804688 253.90625 C 316.6875 253.875 317.558594 253.78125 318.425781 253.625 C 319.292969 253.464844 320.144531 253.246094 320.976562 252.960938 C 321.8125 252.675781 322.621094 252.332031 323.402344 251.925781 C 324.183594 251.523438 324.933594 251.0625 325.648438 250.546875 C 326.363281 250.03125 327.035156 249.464844 327.664062 248.851562 C 328.296875 248.234375 328.878906 247.578125 329.410156 246.875 C 329.941406 246.171875 330.421875 245.433594 330.84375 244.664062 C 331.265625 243.890625 331.632812 243.089844 331.9375 242.261719 C 332.441406 240.933594 332.996094 239.625 333.601562 238.335938 C 334.207031 237.046875 334.859375 235.78125 335.558594 234.542969 C 336.261719 233.304688 337.007812 232.09375 337.796875 230.910156 C 338.589844 229.726562 339.425781 228.574219 340.304688 227.457031 C 341.183594 226.335938 342.101562 225.25 343.0625 224.199219 C 344.023438 223.148438 345.023438 222.136719 346.058594 221.164062 C 347.097656 220.1875 348.167969 219.253906 349.277344 218.359375 C 350.382812 217.464844 351.523438 216.613281 352.695312 215.804688 C 353.867188 214.996094 355.070312 214.234375 356.296875 213.519531 C 357.527344 212.800781 358.78125 212.128906 360.0625 211.507812 C 361.34375 210.886719 362.644531 210.3125 363.96875 209.789062 C 365.289062 209.261719 366.632812 208.789062 367.992188 208.367188 C 369.351562 207.941406 370.722656 207.570312 372.109375 207.253906 C 373.496094 206.933594 374.894531 206.667969 376.300781 206.453125 C 377.710938 206.238281 379.121094 206.078125 380.542969 205.96875 C 381.960938 205.863281 383.382812 205.808594 384.804688 205.808594 Z M 629.828125 205.808594 "/></g><g clip-rule="nonzero" clip-path="url(#58d4d76e27)"><g clip-rule="nonzero" clip-path="url(#555a473654)"><g clip-rule="nonzero" clip-path="url(#0f4267f8b1)"><path style=" stroke:none;fill-rule:nonzero;fill:#f15800;fill-opacity:1;" d="M 682.265625 135.96875 C 679.371094 133.5 676.5 131.007812 673.636719 128.511719 L 669.34375 124.757812 L 665.066406 120.992188 C 659.363281 115.964844 653.6875 110.910156 648.03125 105.839844 L 637.195312 96.121094 L 649.992188 103.195312 L 657.617188 107.40625 L 665.230469 111.640625 L 672.832031 115.890625 L 680.425781 120.160156 L 677.253906 122.882812 L 674.574219 116.234375 L 671.910156 109.578125 L 669.253906 102.921875 L 666.609375 96.257812 L 663.109375 87.4375 L 670.449219 93.488281 L 676.851562 98.761719 L 683.246094 104.050781 L 686.433594 106.707031 L 689.613281 109.367188 L 692.789062 112.039062 L 695.957031 114.714844 L 692.054688 117.058594 C 691.453125 114 690.855469 110.9375 690.269531 107.875 C 689.679688 104.8125 689.101562 101.746094 688.527344 98.679688 L 686.820312 89.480469 L 685.132812 80.273438 L 682.882812 67.980469 L 688.371094 79.121094 L 692.265625 87.023438 L 696.167969 94.917969 L 698.125 98.863281 L 700.089844 102.804688 C 701.402344 105.433594 702.714844 108.058594 704.039062 110.675781 L 702.246094 110.664062 L 705.3125 105.136719 L 708.363281 99.601562 L 711.390625 94.054688 L 714.402344 88.5 L 716.363281 84.878906 L 715.960938 88.972656 L 715.378906 94.894531 L 714.8125 100.816406 L 714.257812 106.742188 L 713.71875 112.667969 L 712.183594 111.882812 L 718.214844 106.429688 L 724.230469 100.960938 L 730.234375 95.472656 L 736.222656 89.96875 L 741.941406 84.714844 L 738.394531 91.6875 L 724.46875 119.042969 L 721.503906 116.464844 L 730.066406 109.992188 L 738.644531 103.550781 L 747.25 97.132812 L 755.867188 90.738281 L 775.066406 76.488281 L 759.277344 94.5 L 743.777344 112.179688 L 736.023438 121.011719 L 728.257812 129.835938 L 726.171875 124.992188 L 734.269531 125.195312 L 742.363281 125.417969 L 750.460938 125.652344 L 758.554688 125.902344 L 777.125 126.480469 L 759.3125 131.707031 L 747.308594 135.230469 L 735.296875 138.722656 L 735.113281 133.238281 L 746.21875 135.851562 L 757.320312 138.488281 L 766.050781 140.558594 L 757.636719 143.5 L 745.464844 147.757812 L 733.285156 151.988281 L 733.867188 148.035156 L 740.492188 153.148438 L 747.113281 158.273438 L 753.722656 163.40625 L 760.324219 168.554688 L 769.464844 175.679688 L 758.765625 171.410156 L 747.789062 167.03125 L 736.820312 162.617188 L 731.339844 160.398438 L 725.867188 158.164062 C 722.21875 156.671875 718.574219 155.171875 714.9375 153.652344 L 715.128906 153.132812 C 718.878906 154.359375 722.617188 155.605469 726.351562 156.859375 L 731.957031 158.746094 L 737.554688 160.644531 L 748.738281 164.472656 L 759.914062 168.332031 L 758.359375 171.1875 L 751.542969 166.324219 L 744.738281 161.453125 L 737.941406 156.570312 L 731.152344 151.675781 L 727.757812 149.230469 L 731.734375 147.71875 L 743.785156 143.136719 L 755.847656 138.578125 L 756.164062 143.59375 L 745.011719 141.191406 L 733.859375 138.769531 L 723.238281 136.464844 L 733.675781 133.285156 L 745.644531 129.640625 L 757.621094 126.023438 L 758.378906 131.828125 L 750.28125 131.597656 L 742.1875 131.347656 L 734.09375 131.085938 L 725.996094 130.808594 L 719.730469 130.59375 L 723.914062 125.964844 L 731.789062 117.238281 L 739.675781 108.523438 L 755.464844 91.101562 L 758.875 94.863281 L 750.152344 101.113281 L 741.414062 107.34375 L 732.65625 113.546875 L 723.878906 119.722656 L 716.597656 124.84375 L 720.910156 117.144531 L 735.914062 90.359375 L 738.085938 92.074219 L 731.894531 97.351562 L 725.71875 102.640625 L 719.554688 107.945312 L 713.410156 113.269531 L 711.625 114.816406 L 711.875 112.484375 L 712.503906 106.570312 L 713.121094 100.652344 L 713.722656 94.730469 L 714.308594 88.8125 L 715.867188 89.285156 L 712.878906 94.859375 L 709.914062 100.4375 L 706.964844 106.027344 L 704.035156 111.628906 L 703.152344 113.3125 L 702.238281 111.617188 C 700.84375 109.035156 699.441406 106.453125 698.039062 103.875 L 695.925781 100.011719 L 693.804688 96.152344 L 689.554688 88.4375 L 685.296875 80.726562 L 688.53125 79.570312 L 690.636719 88.691406 L 692.722656 97.8125 C 693.410156 100.855469 694.097656 103.898438 694.773438 106.941406 C 695.449219 109.988281 696.117188 113.035156 696.777344 116.082031 L 698.242188 122.804688 L 692.875 118.425781 L 689.664062 115.800781 L 686.457031 113.171875 L 683.253906 110.535156 L 680.058594 107.886719 L 673.6875 102.574219 L 667.324219 97.25 L 671.167969 94.480469 L 673.738281 101.171875 L 676.296875 107.867188 L 678.84375 114.566406 L 681.382812 121.273438 L 683.636719 127.230469 L 678.207031 123.996094 L 670.722656 119.539062 L 663.25 115.066406 L 655.785156 110.574219 L 648.332031 106.0625 L 650.296875 103.417969 C 655.734375 108.722656 661.15625 114.050781 666.550781 119.402344 L 670.59375 123.421875 L 674.625 127.453125 C 677.308594 130.144531 679.984375 132.84375 682.640625 135.5625 Z M 682.265625 135.96875 "/></g></g></g><g clip-rule="nonzero" clip-path="url(#44538622cb)"><path style=" stroke:none;fill-rule:evenodd;fill:#f15800;fill-opacity:1;" d="M 150.128906 48.140625 L 146.671875 51.371094 L 147.179688 53.582031 C 130.59375 71.964844 119.640625 80.660156 116.445312 76.027344 C 113.890625 67.234375 115.171875 58.535156 119.1875 49.90625 L 122.601562 48.308594 L 123.257812 40.742188 L 118.011719 46.234375 L 119.085938 49.917969 C 114.75 57.195312 110.089844 63.636719 104.765625 68.347656 C 99.152344 73.304688 97.441406 74 93.8125 66.203125 C 91.125 60.425781 90.207031 52.683594 88.398438 45.921875 L 92.992188 40.558594 L 86.988281 23.457031 L 80.984375 40.558594 L 85.578125 45.921875 C 83.769531 52.679688 82.851562 60.425781 80.160156 66.203125 C 76.535156 74 74.824219 73.304688 69.210938 68.347656 C 63.882812 63.636719 59.222656 57.191406 54.890625 49.917969 L 55.960938 46.238281 L 50.714844 40.742188 L 51.375 48.308594 L 54.789062 49.90625 C 58.808594 58.535156 60.085938 67.234375 57.53125 76.027344 C 54.335938 80.660156 43.382812 71.964844 26.792969 53.582031 L 27.304688 51.371094 L 23.847656 48.140625 L 24.527344 52.824219 L 26.578125 53.644531 L 50.207031 94.78125 L 42.953125 74.796875 C 43.097656 74.917969 43.246094 75.035156 43.394531 75.15625 C 47.089844 78.117188 53.574219 82.914062 58.488281 80.058594 C 59.320312 79.574219 60.015625 78.910156 60.5625 78.117188 L 60.902344 77.625 L 61.070312 77.054688 C 62.058594 73.640625 62.523438 70.25 62.527344 66.894531 C 63.878906 68.382812 65.289062 69.796875 66.773438 71.105469 C 69.273438 73.3125 72.4375 76.222656 76.042969 75.691406 C 79.945312 75.117188 82.015625 70.953125 83.5 67.753906 C 85.152344 64.207031 86.140625 60.253906 86.988281 56.375 C 87.839844 60.253906 88.824219 64.207031 90.476562 67.753906 C 91.964844 70.953125 94.03125 75.117188 97.933594 75.691406 C 101.542969 76.222656 104.707031 73.3125 107.203125 71.105469 C 108.6875 69.796875 110.101562 68.382812 111.449219 66.894531 C 111.457031 70.25 111.917969 73.640625 112.910156 77.054688 L 113.074219 77.625 L 113.414062 78.117188 C 113.960938 78.910156 114.65625 79.574219 115.492188 80.058594 C 120.40625 82.917969 126.886719 78.117188 130.582031 75.15625 C 130.730469 75.035156 130.878906 74.917969 131.027344 74.796875 L 124.660156 93.304688 L 147.398438 53.644531 L 149.449219 52.824219 Z M 150.128906 48.140625 "/></g><path style=" stroke:none;fill-rule:evenodd;fill:#f15800;fill-opacity:1;" d="M 74.585938 63.410156 C 75.007812 65.339844 75.484375 67.296875 76.132812 69.164062 C 76.566406 68.597656 77.148438 67.652344 77.921875 66.066406 C 76.746094 61.722656 76.101562 56.789062 74.585938 52.824219 C 72.949219 57.113281 72.328125 62.527344 70.953125 67.105469 C 71.5625 67.640625 72.363281 68.328125 73.128906 68.902344 C 73.730469 67.117188 74.183594 65.25 74.585938 63.410156 Z M 74.585938 63.410156 "/><path style=" stroke:none;fill-rule:evenodd;fill:#f15800;fill-opacity:1;" d="M 99.355469 63.410156 C 99.761719 65.257812 100.214844 67.128906 100.820312 68.925781 C 101.582031 68.359375 102.382812 67.671875 102.996094 67.132812 C 101.613281 62.550781 100.996094 57.117188 99.355469 52.824219 C 97.847656 56.777344 97.203125 61.6875 96.03125 66.015625 C 96.800781 67.601562 97.386719 68.554688 97.820312 69.132812 C 98.460938 67.273438 98.933594 65.328125 99.355469 63.410156 Z M 99.355469 63.410156 "/><path style=" stroke:none;fill-rule:evenodd;fill:#f15800;fill-opacity:1;" d="M 121.246094 74.5 C 121.695312 71.5625 122.464844 68.472656 122.539062 65.710938 C 120.804688 67.546875 119.28125 69.988281 117.691406 72.226562 C 117.839844 73.042969 118.019531 73.855469 118.234375 74.667969 C 118.71875 74.035156 119.179688 73.386719 119.628906 72.742188 C 119.488281 73.539062 119.355469 74.34375 119.253906 75.148438 C 119.746094 75.085938 120.398438 74.898438 121.246094 74.5 Z M 121.246094 74.5 "/><path style=" stroke:none;fill-rule:evenodd;fill:#f15800;fill-opacity:1;" d="M 56.285156 72.226562 C 54.691406 69.988281 53.171875 67.546875 51.4375 65.710938 C 51.511719 68.46875 52.28125 71.5625 52.730469 74.5 C 53.578125 74.898438 54.226562 75.085938 54.722656 75.148438 C 54.617188 74.339844 54.488281 73.535156 54.34375 72.742188 C 54.792969 73.386719 55.257812 74.035156 55.742188 74.664062 C 55.953125 73.855469 56.136719 73.042969 56.285156 72.226562 Z M 56.285156 72.226562 "/><g style="fill:#f15800;fill-opacity:1;"><g transform="translate(117.237392, 192.556401)"><path style="stroke:none" d="M 40.796875 -60.203125 C 42.960938 -61.222656 45.257812 -61.734375 47.6875 -61.734375 L 47.6875 -12.390625 C 47.6875 -9.785156 46.957031 -7.421875 45.5 -5.296875 C 44.039062 -3.179688 42.144531 -1.546875 39.8125 -0.390625 C 37.78125 0.710938 35.570312 1.375 33.1875 1.59375 C 32.257812 1.675781 31.441406 1.738281 30.734375 1.78125 C 30.023438 1.832031 28.875 1.878906 27.28125 1.921875 C 26.40625 1.921875 25.65625 1.921875 25.03125 1.921875 C 23.800781 1.921875 22.585938 1.882812 21.390625 1.8125 C 20.203125 1.75 19.035156 1.675781 17.890625 1.59375 C 15.984375 1.414062 14.179688 1.015625 12.484375 0.390625 C 10.785156 -0.222656 9.316406 -1.148438 8.078125 -2.390625 C 7.765625 -2.648438 7.476562 -2.910156 7.21875 -3.171875 C 6.03125 -4.410156 5.082031 -5.8125 4.375 -7.375 C 3.664062 -8.945312 3.3125 -10.617188 3.3125 -12.390625 L 3.3125 -61.734375 C 5.875 -61.734375 8.257812 -61.179688 10.46875 -60.078125 C 12.757812 -58.929688 14.609375 -57.296875 16.015625 -55.171875 C 17.429688 -53.054688 18.140625 -50.71875 18.140625 -48.15625 L 18.140625 -14.578125 C 18.140625 -13.515625 18.492188 -12.648438 19.203125 -11.984375 C 19.910156 -11.410156 20.75 -11.125 21.71875 -11.125 L 27.546875 -11.125 L 29.34375 -11.0625 L 29.34375 -11.125 C 29.34375 -11.125 29.363281 -11.125 29.40625 -11.125 C 30.375 -11.125 31.191406 -11.488281 31.859375 -12.21875 C 32.523438 -12.945312 32.859375 -13.796875 32.859375 -14.765625 L 32.859375 -48.15625 C 32.859375 -50.757812 33.597656 -53.128906 35.078125 -55.265625 C 36.554688 -57.410156 38.460938 -59.054688 40.796875 -60.203125 Z M 40.796875 -60.203125 "/></g></g><g style="fill:#f15800;fill-opacity:1;"><g transform="translate(168.229905, 192.556401)"><path style="stroke:none" d="M 37.890625 -20.859375 L 50.265625 -2.390625 C 48.148438 -0.972656 45.976562 -0.1875 43.75 -0.03125 C 41.519531 0.125 39.410156 -0.289062 37.421875 -1.28125 C 35.429688 -2.28125 33.734375 -3.816406 32.328125 -5.890625 L 24.109375 -18.078125 L 17.890625 -18.078125 L 17.890625 -17.546875 C 17.890625 -14.328125 17.203125 -11.390625 15.828125 -8.734375 C 14.460938 -6.085938 12.640625 -3.96875 10.359375 -2.375 C 8.085938 -0.789062 5.5625 0 2.78125 0 L 2.78125 -48.953125 C 2.78125 -50.929688 3.1875 -52.789062 4 -54.53125 C 4.820312 -56.28125 5.925781 -57.816406 7.3125 -59.140625 C 8.707031 -60.472656 10.253906 -61.5 11.953125 -62.21875 C 13.648438 -62.945312 15.363281 -63.3125 17.09375 -63.3125 L 26.15625 -63.3125 C 29.601562 -63.3125 32.71875 -62.828125 35.5 -61.859375 C 38.320312 -60.847656 40.726562 -59.390625 42.71875 -57.484375 C 44.707031 -55.585938 46.234375 -53.25 47.296875 -50.46875 C 48.347656 -47.726562 48.875 -44.59375 48.875 -41.0625 L 48.875 -40.9375 C 48.875 -37.175781 48.28125 -33.882812 47.09375 -31.0625 C 45.945312 -28.195312 44.332031 -25.8125 42.25 -23.90625 C 40.925781 -22.675781 39.472656 -21.660156 37.890625 -20.859375 Z M 17.890625 -48.6875 L 17.890625 -31.859375 L 25.109375 -31.859375 C 27.796875 -31.859375 29.914062 -32.609375 31.46875 -34.109375 C 32.96875 -35.566406 33.71875 -37.578125 33.71875 -40.140625 L 33.71875 -40.34375 C 33.71875 -43.070312 32.96875 -45.144531 31.46875 -46.5625 C 29.914062 -47.976562 27.75 -48.6875 24.96875 -48.6875 Z M 17.890625 -48.6875 "/></g></g><g style="fill:#f15800;fill-opacity:1;"><g transform="translate(220.017043, 192.556401)"><path style="stroke:none" d="M 40.796875 -60.203125 C 42.960938 -61.222656 45.257812 -61.734375 47.6875 -61.734375 L 47.6875 -12.390625 C 47.6875 -9.785156 46.957031 -7.421875 45.5 -5.296875 C 44.039062 -3.179688 42.144531 -1.546875 39.8125 -0.390625 C 37.78125 0.710938 35.570312 1.375 33.1875 1.59375 C 32.257812 1.675781 31.441406 1.738281 30.734375 1.78125 C 30.023438 1.832031 28.875 1.878906 27.28125 1.921875 C 26.40625 1.921875 25.65625 1.921875 25.03125 1.921875 C 23.800781 1.921875 22.585938 1.882812 21.390625 1.8125 C 20.203125 1.75 19.035156 1.675781 17.890625 1.59375 C 15.984375 1.414062 14.179688 1.015625 12.484375 0.390625 C 10.785156 -0.222656 9.316406 -1.148438 8.078125 -2.390625 C 7.765625 -2.648438 7.476562 -2.910156 7.21875 -3.171875 C 6.03125 -4.410156 5.082031 -5.8125 4.375 -7.375 C 3.664062 -8.945312 3.3125 -10.617188 3.3125 -12.390625 L 3.3125 -61.734375 C 5.875 -61.734375 8.257812 -61.179688 10.46875 -60.078125 C 12.757812 -58.929688 14.609375 -57.296875 16.015625 -55.171875 C 17.429688 -53.054688 18.140625 -50.71875 18.140625 -48.15625 L 18.140625 -14.578125 C 18.140625 -13.515625 18.492188 -12.648438 19.203125 -11.984375 C 19.910156 -11.410156 20.75 -11.125 21.71875 -11.125 L 27.546875 -11.125 L 29.34375 -11.0625 L 29.34375 -11.125 C 29.34375 -11.125 29.363281 -11.125 29.40625 -11.125 C 30.375 -11.125 31.191406 -11.488281 31.859375 -12.21875 C 32.523438 -12.945312 32.859375 -13.796875 32.859375 -14.765625 L 32.859375 -48.15625 C 32.859375 -50.757812 33.597656 -53.128906 35.078125 -55.265625 C 36.554688 -57.410156 38.460938 -59.054688 40.796875 -60.203125 Z M 40.796875 -60.203125 "/></g></g><g style="fill:#f15800;fill-opacity:1;"><g transform="translate(271.009556, 192.556401)"><path style="stroke:none" d="M 40.265625 -30.59375 C 41.421875 -29.050781 42.328125 -27.316406 42.984375 -25.390625 C 43.648438 -23.472656 43.984375 -21.457031 43.984375 -19.34375 L 43.984375 -18.8125 C 43.984375 -16.25 43.492188 -13.828125 42.515625 -11.546875 C 41.546875 -9.273438 40.203125 -7.269531 38.484375 -5.53125 C 36.765625 -3.789062 34.765625 -2.429688 32.484375 -1.453125 C 30.210938 -0.484375 27.773438 0 25.171875 0 L 3.84375 0 C 3.84375 -2.695312 4.4375 -5.101562 5.625 -7.21875 C 6.820312 -9.34375 8.4375 -11.03125 10.46875 -12.28125 C 12.5 -13.539062 14.726562 -14.171875 17.15625 -14.171875 L 25.171875 -14.171875 C 26.410156 -14.171875 27.492188 -14.632812 28.421875 -15.5625 C 29.347656 -16.488281 29.8125 -17.570312 29.8125 -18.8125 L 29.8125 -19.34375 C 29.8125 -20.625 29.347656 -21.726562 28.421875 -22.65625 C 27.492188 -23.582031 26.410156 -24.046875 25.171875 -24.046875 L 20.671875 -24.046875 C 17.578125 -24.046875 14.710938 -24.726562 12.078125 -26.09375 C 9.453125 -27.46875 7.28125 -29.300781 5.5625 -31.59375 C 4.414062 -33.1875 3.507812 -34.929688 2.84375 -36.828125 C 2.1875 -38.722656 1.859375 -40.734375 1.859375 -42.859375 L 1.859375 -43.390625 C 1.859375 -45.992188 2.34375 -48.429688 3.3125 -50.703125 C 4.28125 -52.972656 5.625 -54.96875 7.34375 -56.6875 C 9.070312 -58.414062 11.070312 -59.765625 13.34375 -60.734375 C 15.613281 -61.703125 18.054688 -62.1875 20.671875 -62.1875 L 40.34375 -62.1875 C 40.34375 -59.539062 39.742188 -57.144531 38.546875 -55 C 37.359375 -52.863281 35.757812 -51.164062 33.75 -49.90625 C 31.738281 -48.644531 29.5 -48.015625 27.03125 -48.015625 L 20.671875 -48.015625 C 19.390625 -48.015625 18.296875 -47.550781 17.390625 -46.625 C 16.484375 -45.695312 16.03125 -44.617188 16.03125 -43.390625 L 16.03125 -42.859375 C 16.03125 -41.578125 16.484375 -40.484375 17.390625 -39.578125 C 18.296875 -38.671875 19.390625 -38.21875 20.671875 -38.21875 L 25.171875 -38.21875 C 28.265625 -38.21875 31.125 -37.519531 33.75 -36.125 C 36.375 -34.738281 38.546875 -32.894531 40.265625 -30.59375 Z M 40.265625 -30.59375 "/></g></g><g style="fill:#f15800;fill-opacity:1;"><g transform="translate(316.770431, 192.556401)"><path style="stroke:none" d="M 3.3125 -49.078125 C 3.3125 -51.503906 3.960938 -53.722656 5.265625 -55.734375 C 6.566406 -57.742188 8.320312 -59.351562 10.53125 -60.5625 C 12.738281 -61.78125 15.164062 -62.390625 17.8125 -62.390625 L 17.8125 -13.046875 C 17.8125 -10.578125 17.160156 -8.335938 15.859375 -6.328125 C 14.554688 -4.316406 12.8125 -2.710938 10.625 -1.515625 C 8.445312 -0.328125 6.007812 0.265625 3.3125 0.265625 Z M 3.3125 -49.078125 "/></g></g><g style="fill:#f15800;fill-opacity:1;"><g transform="translate(338.227051, 192.556401)"><path style="stroke:none" d="M 13.046875 -62 L 48.8125 -62 C 48.8125 -59.300781 48.203125 -56.9375 46.984375 -54.90625 C 45.773438 -52.875 44.164062 -51.296875 42.15625 -50.171875 C 40.144531 -49.046875 37.90625 -48.484375 35.4375 -48.484375 L 31.53125 -48.484375 L 31.53125 -13.375 C 31.53125 -10.90625 30.878906 -8.65625 29.578125 -6.625 C 28.273438 -4.59375 26.519531 -2.976562 24.3125 -1.78125 C 22.101562 -0.59375 19.648438 0 16.953125 0 L 16.953125 -48.484375 L -0.265625 -48.484375 C -0.265625 -51.128906 0.328125 -53.46875 1.515625 -55.5 C 2.710938 -57.53125 4.328125 -59.117188 6.359375 -60.265625 C 8.390625 -61.421875 10.617188 -62 13.046875 -62 Z M 13.046875 -62 "/></g></g><g style="fill:#f15800;fill-opacity:1;"><g transform="translate(383.987605, 192.556401)"><path style="stroke:none" d="M 35.4375 -48.609375 C 35.4375 -51.085938 36.097656 -53.363281 37.421875 -55.4375 C 38.742188 -57.507812 40.53125 -59.148438 42.78125 -60.359375 C 45.039062 -61.578125 47.535156 -62.1875 50.265625 -62.1875 L 50.265625 -12.71875 C 50.265625 -10.195312 49.59375 -7.910156 48.25 -5.859375 C 46.90625 -3.804688 45.117188 -2.160156 42.890625 -0.921875 C 40.660156 0.304688 38.175781 0.921875 35.4375 0.921875 L 35.4375 -24.109375 L 18.28125 -24.109375 L 18.28125 -12.71875 C 18.28125 -10.195312 17.601562 -7.910156 16.25 -5.859375 C 14.90625 -3.804688 13.117188 -2.160156 10.890625 -0.921875 C 8.660156 0.304688 6.175781 0.921875 3.4375 0.921875 L 3.4375 -35.5625 C 3.351562 -36.09375 3.3125 -36.625 3.3125 -37.15625 L 3.4375 -37.15625 L 3.4375 -48.609375 C 3.4375 -51.085938 4.097656 -53.363281 5.421875 -55.4375 C 6.753906 -57.507812 8.546875 -59.148438 10.796875 -60.359375 C 13.046875 -61.578125 15.539062 -62.1875 18.28125 -62.1875 L 18.28125 -37.15625 L 35.4375 -37.15625 Z M 35.4375 -48.609375 "/></g></g><g style="fill:#f15800;fill-opacity:1;"><g transform="translate(435.973321, 192.556401)"><path style="stroke:none" d="M 3.3125 -49.078125 C 3.3125 -51.503906 3.960938 -53.722656 5.265625 -55.734375 C 6.566406 -57.742188 8.320312 -59.351562 10.53125 -60.5625 C 12.738281 -61.78125 15.164062 -62.390625 17.8125 -62.390625 L 17.8125 -13.046875 C 17.8125 -10.578125 17.160156 -8.335938 15.859375 -6.328125 C 14.554688 -4.316406 12.8125 -2.710938 10.625 -1.515625 C 8.445312 -0.328125 6.007812 0.265625 3.3125 0.265625 Z M 3.3125 -49.078125 "/></g></g><g style="fill:#f15800;fill-opacity:1;"><g transform="translate(457.231258, 192.556401)"><path style="stroke:none" d="M 3.640625 -7.953125 C 2.890625 -9.628906 2.515625 -11.394531 2.515625 -13.25 L 2.515625 -48.875 C 2.515625 -48.925781 2.515625 -48.960938 2.515625 -48.984375 C 2.515625 -49.003906 2.515625 -49.035156 2.515625 -49.078125 C 2.515625 -53.003906 3.609375 -56.160156 5.796875 -58.546875 C 7.984375 -60.929688 10.84375 -62.210938 14.375 -62.390625 L 14.375 -62.453125 L 41.203125 -62.453125 L 41.203125 -58.875 C 41.203125 -56.71875 40.722656 -54.773438 39.765625 -53.046875 C 38.816406 -51.328125 37.46875 -49.957031 35.71875 -48.9375 C 33.976562 -47.925781 31.941406 -47.421875 29.609375 -47.421875 L 29.609375 -49.078125 L 20.46875 -49.078125 C 19.539062 -48.941406 18.703125 -48.539062 17.953125 -47.875 C 17.203125 -47.21875 16.738281 -46.40625 16.5625 -45.4375 C 16.5625 -45.21875 16.5625 -45.019531 16.5625 -44.84375 L 16.5625 -40.53125 C 16.5625 -40.351562 16.5625 -40.132812 16.5625 -39.875 L 16.5625 -16.5 C 16.738281 -15.476562 17.144531 -14.644531 17.78125 -14 C 18.425781 -13.363281 19.273438 -13.046875 20.328125 -13.046875 L 41.53125 -13.046875 C 41.53125 -10.304688 40.910156 -7.941406 39.671875 -5.953125 C 38.429688 -3.972656 36.785156 -2.429688 34.734375 -1.328125 C 32.679688 -0.222656 30.421875 0.328125 27.953125 0.328125 L 16.03125 0.328125 L 15.96875 0.265625 C 14.457031 0.128906 13.019531 -0.1875 11.65625 -0.6875 C 10.289062 -1.195312 9.054688 -1.875 7.953125 -2.71875 C 7.023438 -3.425781 6.195312 -4.21875 5.46875 -5.09375 C 4.738281 -5.976562 4.128906 -6.929688 3.640625 -7.953125 Z M 3.640625 -7.953125 "/></g></g><g style="fill:#f15800;fill-opacity:1;"><g transform="translate(500.011719, 192.556401)"><path style="stroke:none" d="M 32.859375 -30.265625 L 49.875 -2.046875 C 47.84375 -0.816406 45.625 -0.144531 43.21875 -0.03125 C 40.8125 0.0703125 38.523438 -0.367188 36.359375 -1.359375 C 34.191406 -2.347656 32.492188 -3.882812 31.265625 -5.96875 L 20.203125 -24.3125 C 19.410156 -24.132812 18.59375 -24.046875 17.75 -24.046875 L 17.75 -13.640625 C 17.75 -11.210938 17.097656 -8.992188 15.796875 -6.984375 C 14.492188 -4.972656 12.757812 -3.367188 10.59375 -2.171875 C 8.4375 -0.984375 6.007812 -0.390625 3.3125 -0.390625 L 3.3125 -50.609375 C 3.3125 -53.035156 3.960938 -55.25 5.265625 -57.25 C 6.566406 -59.257812 8.3125 -60.847656 10.5 -62.015625 C 12.6875 -63.191406 15.101562 -63.78125 17.75 -63.78125 L 17.75 -37.21875 L 29.671875 -57.625 C 31.523438 -60.757812 34.007812 -62.710938 37.125 -63.484375 C 40.238281 -64.253906 43.515625 -63.648438 46.953125 -61.671875 L 30.328125 -33.25 C 30.953125 -32.757812 31.414062 -32.316406 31.71875 -31.921875 C 32.03125 -31.523438 32.410156 -30.972656 32.859375 -30.265625 Z M 32.859375 -30.265625 "/></g></g><g style="fill:#f15800;fill-opacity:1;"><g transform="translate(546.633027, 192.556401)"><path style="stroke:none" d="M 17.015625 -24.640625 L 17.015625 -14.703125 L 40.609375 -14.703125 C 40.609375 -12.003906 39.976562 -9.539062 38.71875 -7.3125 C 37.457031 -5.082031 35.742188 -3.304688 33.578125 -1.984375 C 31.410156 -0.660156 28.960938 0 26.234375 0 L 16.625 0 C 14.0625 0 11.707031 -0.628906 9.5625 -1.890625 C 7.425781 -3.148438 5.726562 -4.847656 4.46875 -6.984375 C 3.207031 -9.128906 2.578125 -11.484375 2.578125 -14.046875 L 2.578125 -48.09375 C 2.578125 -50.738281 3.226562 -53.140625 4.53125 -55.296875 C 5.832031 -57.460938 7.566406 -59.195312 9.734375 -60.5 C 11.898438 -61.800781 14.304688 -62.453125 16.953125 -62.453125 L 43.78125 -62.453125 C 43.78125 -59.722656 43.226562 -57.238281 42.125 -55 C 41.019531 -52.769531 39.460938 -50.992188 37.453125 -49.671875 C 35.441406 -48.347656 33.066406 -47.6875 30.328125 -47.6875 L 17.015625 -47.6875 L 17.015625 -38.28125 L 34.578125 -38.28125 L 31.328125 -24.640625 Z M 17.015625 -24.640625 "/></g></g><g style="fill:#f15800;fill-opacity:1;"><g transform="translate(587.823907, 192.556401)"><path style="stroke:none" d="M 40.265625 -30.59375 C 41.421875 -29.050781 42.328125 -27.316406 42.984375 -25.390625 C 43.648438 -23.472656 43.984375 -21.457031 43.984375 -19.34375 L 43.984375 -18.8125 C 43.984375 -16.25 43.492188 -13.828125 42.515625 -11.546875 C 41.546875 -9.273438 40.203125 -7.269531 38.484375 -5.53125 C 36.765625 -3.789062 34.765625 -2.429688 32.484375 -1.453125 C 30.210938 -0.484375 27.773438 0 25.171875 0 L 3.84375 0 C 3.84375 -2.695312 4.4375 -5.101562 5.625 -7.21875 C 6.820312 -9.34375 8.4375 -11.03125 10.46875 -12.28125 C 12.5 -13.539062 14.726562 -14.171875 17.15625 -14.171875 L 25.171875 -14.171875 C 26.410156 -14.171875 27.492188 -14.632812 28.421875 -15.5625 C 29.347656 -16.488281 29.8125 -17.570312 29.8125 -18.8125 L 29.8125 -19.34375 C 29.8125 -20.625 29.347656 -21.726562 28.421875 -22.65625 C 27.492188 -23.582031 26.410156 -24.046875 25.171875 -24.046875 L 20.671875 -24.046875 C 17.578125 -24.046875 14.710938 -24.726562 12.078125 -26.09375 C 9.453125 -27.46875 7.28125 -29.300781 5.5625 -31.59375 C 4.414062 -33.1875 3.507812 -34.929688 2.84375 -36.828125 C 2.1875 -38.722656 1.859375 -40.734375 1.859375 -42.859375 L 1.859375 -43.390625 C 1.859375 -45.992188 2.34375 -48.429688 3.3125 -50.703125 C 4.28125 -52.972656 5.625 -54.96875 7.34375 -56.6875 C 9.070312 -58.414062 11.070312 -59.765625 13.34375 -60.734375 C 15.613281 -61.703125 18.054688 -62.1875 20.671875 -62.1875 L 40.34375 -62.1875 C 40.34375 -59.539062 39.742188 -57.144531 38.546875 -55 C 37.359375 -52.863281 35.757812 -51.164062 33.75 -49.90625 C 31.738281 -48.644531 29.5 -48.015625 27.03125 -48.015625 L 20.671875 -48.015625 C 19.390625 -48.015625 18.296875 -47.550781 17.390625 -46.625 C 16.484375 -45.695312 16.03125 -44.617188 16.03125 -43.390625 L 16.03125 -42.859375 C 16.03125 -41.578125 16.484375 -40.484375 17.390625 -39.578125 C 18.296875 -38.671875 19.390625 -38.21875 20.671875 -38.21875 L 25.171875 -38.21875 C 28.265625 -38.21875 31.125 -37.519531 33.75 -36.125 C 36.375 -34.738281 38.546875 -32.894531 40.265625 -30.59375 Z M 40.265625 -30.59375 "/></g></g><g style="fill:#f15800;fill-opacity:1;"><g transform="translate(42.702212, 223.947575)"><path style="stroke:none" d="M 6.6875 -12.375 C 5.550781 -14.90625 4.984375 -17.535156 4.984375 -20.265625 L 4.984375 -73.578125 C 4.984375 -73.640625 5 -73.6875 5.03125 -73.71875 C 5.070312 -73.75 5.09375 -73.800781 5.09375 -73.875 L 4.984375 -73.875 C 4.984375 -79.726562 6.628906 -84.453125 9.921875 -88.046875 C 13.222656 -91.640625 17.503906 -93.570312 22.765625 -93.84375 L 62.890625 -93.84375 L 62.890625 -88.546875 C 62.890625 -85.347656 62.171875 -82.453125 60.734375 -79.859375 C 59.304688 -77.265625 57.296875 -75.21875 54.703125 -73.71875 C 52.109375 -72.226562 49.046875 -71.484375 45.515625 -71.484375 L 45.515625 -73.875 L 31.84375 -73.875 C 30.445312 -73.738281 29.195312 -73.15625 28.09375 -72.125 C 27 -71.09375 26.320312 -69.878906 26.0625 -68.484375 C 25.988281 -68.148438 25.953125 -67.847656 25.953125 -67.578125 L 25.953125 -61.09375 C 25.953125 -60.832031 25.988281 -60.535156 26.0625 -60.203125 L 26.0625 -25.15625 C 26.320312 -23.625 26.914062 -22.375 27.84375 -21.40625 C 28.78125 -20.445312 30.046875 -19.96875 31.640625 -19.96875 L 53.015625 -19.96875 L 53.015625 -34.140625 C 53.015625 -34.742188 53.046875 -35.375 53.109375 -36.03125 C 48.910156 -36.832031 45.5625 -38.710938 43.0625 -41.671875 C 40.570312 -44.640625 39.328125 -48.617188 39.328125 -53.609375 L 59 -53.609375 C 61.988281 -53.609375 64.378906 -53.070312 66.171875 -52 C 67.972656 -50.9375 69.289062 -49.570312 70.125 -47.90625 C 70.957031 -46.25 71.488281 -44.453125 71.71875 -42.515625 C 71.957031 -40.585938 72.039062 -38.742188 71.96875 -36.984375 C 71.90625 -35.222656 71.875 -33.742188 71.875 -32.546875 L 71.78125 -18.171875 C 71.78125 -14.972656 71.078125 -12.109375 69.671875 -9.578125 C 68.273438 -7.054688 66.394531 -4.960938 64.03125 -3.296875 C 61.675781 -1.628906 59.097656 -0.53125 56.296875 0 L 25.15625 -0.09375 C 22.894531 -0.300781 20.75 -0.785156 18.71875 -1.546875 C 16.6875 -2.316406 14.835938 -3.332031 13.171875 -4.59375 C 11.773438 -5.59375 10.523438 -6.753906 9.421875 -8.078125 C 8.328125 -9.410156 7.414062 -10.84375 6.6875 -12.375 Z M 6.6875 -12.375 "/></g></g><g style="fill:#f15800;fill-opacity:1;"><g transform="translate(632.960768, 223.181929)"><path style="stroke:none" d="M 53.421875 -73.28125 C 53.421875 -77.007812 54.414062 -80.4375 56.40625 -83.5625 C 58.40625 -86.695312 61.101562 -89.175781 64.5 -91 C 67.894531 -92.832031 71.65625 -93.75 75.78125 -93.75 L 75.78125 -19.171875 C 75.78125 -15.378906 74.765625 -11.929688 72.734375 -8.828125 C 70.703125 -5.734375 68.003906 -3.253906 64.640625 -1.390625 C 61.285156 0.460938 57.546875 1.390625 53.421875 1.390625 L 53.421875 -36.34375 L 27.5625 -36.34375 L 27.5625 -19.171875 C 27.5625 -15.378906 26.546875 -11.929688 24.515625 -8.828125 C 22.484375 -5.734375 19.785156 -3.253906 16.421875 -1.390625 C 13.054688 0.460938 9.3125 1.390625 5.1875 1.390625 L 5.1875 -53.609375 C 5.050781 -54.410156 4.984375 -55.210938 4.984375 -56.015625 L 5.1875 -56.015625 L 5.1875 -73.28125 C 5.1875 -77.007812 6.1875 -80.4375 8.1875 -83.5625 C 10.1875 -86.695312 12.878906 -89.175781 16.265625 -91 C 19.660156 -92.832031 23.425781 -93.75 27.5625 -93.75 L 27.5625 -56.015625 L 53.421875 -56.015625 Z M 53.421875 -73.28125 "/></g></g><g style="fill:#ffffff;fill-opacity:1;"><g transform="translate(367.8967, 247.437375)"><path style="stroke:none" d="M 15.546875 0.859375 C 12.890625 0.859375 10.535156 0.195312 8.484375 -1.125 C 6.441406 -2.445312 4.863281 -4.195312 3.75 -6.375 C 2.632812 -8.550781 2.078125 -10.875 2.078125 -13.34375 C 2.078125 -15.90625 2.664062 -18.285156 3.84375 -20.484375 C 5.03125 -22.691406 6.660156 -24.445312 8.734375 -25.75 C 10.804688 -27.050781 13.113281 -27.703125 15.65625 -27.703125 C 17.28125 -27.703125 18.78125 -27.425781 20.15625 -26.875 C 21.539062 -26.320312 22.640625 -25.550781 23.453125 -24.5625 C 24.265625 -23.582031 24.671875 -22.460938 24.671875 -21.203125 C 24.640625 -19.992188 24.242188 -19.015625 23.484375 -18.265625 C 22.722656 -17.523438 21.832031 -17.15625 20.8125 -17.15625 C 20.1875 -17.15625 19.578125 -17.320312 18.984375 -17.65625 C 18.390625 -18 17.882812 -18.5 17.46875 -19.15625 L 20.03125 -20.65625 C 20.289062 -20.289062 20.566406 -20.109375 20.859375 -20.109375 C 21.085938 -20.109375 21.285156 -20.21875 21.453125 -20.4375 C 21.628906 -20.664062 21.71875 -20.945312 21.71875 -21.28125 C 21.71875 -22.019531 21.390625 -22.65625 20.734375 -23.1875 C 20.078125 -23.726562 19.265625 -24.128906 18.296875 -24.390625 C 17.328125 -24.648438 16.367188 -24.78125 15.421875 -24.78125 C 13.710938 -24.78125 12.078125 -24.28125 10.515625 -23.28125 C 8.960938 -22.289062 7.707031 -20.914062 6.75 -19.15625 C 5.789062 -17.40625 5.3125 -15.46875 5.3125 -13.34375 C 5.3125 -11.269531 5.769531 -9.363281 6.6875 -7.625 C 7.601562 -5.894531 8.859375 -4.53125 10.453125 -3.53125 C 12.054688 -2.539062 13.832031 -2.046875 15.78125 -2.046875 C 17.632812 -2.046875 19.367188 -2.5 20.984375 -3.40625 C 22.597656 -4.3125 23.75 -5.507812 24.4375 -7 L 27.109375 -5.75 C 26.210938 -3.832031 24.75 -2.25 22.71875 -1 C 20.6875 0.238281 18.296875 0.859375 15.546875 0.859375 Z M 15.546875 0.859375 "/></g></g><g style="fill:#ffffff;fill-opacity:1;"><g transform="translate(404.122863, 247.437375)"><path style="stroke:none" d="M 6.140625 -23.921875 C 5.453125 -23.921875 4.976562 -23.800781 4.71875 -23.5625 C 4.425781 -23.332031 4.253906 -22.898438 4.203125 -22.265625 L 1.265625 -22.3125 C 1.265625 -23.882812 1.75 -25.085938 2.71875 -25.921875 C 3.5 -26.628906 4.648438 -26.984375 6.171875 -26.984375 L 15.140625 -26.984375 C 16.398438 -26.984375 17.488281 -26.765625 18.40625 -26.328125 C 19.71875 -25.691406 20.78125 -24.664062 21.59375 -23.25 C 22.40625 -21.832031 22.8125 -20.300781 22.8125 -18.65625 C 22.8125 -17.257812 22.5 -15.984375 21.875 -14.828125 C 21.25 -13.671875 20.367188 -12.742188 19.234375 -12.046875 C 18.921875 -11.859375 18.515625 -11.695312 18.015625 -11.5625 C 17.515625 -11.4375 17.03125 -11.375 16.5625 -11.375 C 16.976562 -11.21875 17.382812 -10.890625 17.78125 -10.390625 L 19.078125 -8.734375 L 23.140625 -3.03125 C 23.347656 -2.738281 23.59375 -2.59375 23.875 -2.59375 C 24.269531 -2.59375 24.546875 -2.800781 24.703125 -3.21875 L 27.1875 -1.5 C 26.820312 -0.914062 26.328125 -0.453125 25.703125 -0.109375 C 25.085938 0.222656 24.441406 0.390625 23.765625 0.390625 C 23.128906 0.390625 22.535156 0.25 21.984375 -0.03125 C 21.441406 -0.320312 20.972656 -0.734375 20.578125 -1.265625 L 16.046875 -7.546875 C 15.890625 -7.765625 15.59375 -8.179688 15.15625 -8.796875 C 14.726562 -9.410156 14.242188 -9.84375 13.703125 -10.09375 C 13.171875 -10.34375 12.472656 -10.492188 11.609375 -10.546875 L 11.609375 -13.578125 L 14.59375 -13.578125 C 16.144531 -13.578125 17.363281 -14.023438 18.25 -14.921875 C 19.144531 -15.828125 19.59375 -17.070312 19.59375 -18.65625 C 19.59375 -20.226562 19.164062 -21.519531 18.3125 -22.53125 C 17.457031 -23.539062 16.363281 -24.046875 15.03125 -24.046875 L 9.359375 -24.046875 L 9.359375 0.046875 L 6.140625 0.046875 Z M 6.140625 -23.921875 "/></g></g><g style="fill:#ffffff;fill-opacity:1;"><g transform="translate(439.483565, 247.437375)"><path style="stroke:none" d="M 4.875 0.359375 C 3.851562 0.359375 3.023438 0.101562 2.390625 -0.40625 C 1.765625 -0.925781 1.363281 -1.59375 1.1875 -2.40625 L 3.5 -3.65625 C 3.582031 -3.3125 3.71875 -3.039062 3.90625 -2.84375 C 4.101562 -2.65625 4.335938 -2.5625 4.609375 -2.5625 C 4.867188 -2.5625 5.085938 -2.65625 5.265625 -2.84375 C 5.453125 -3.039062 5.625 -3.328125 5.78125 -3.703125 L 15.625 -27.0625 L 16.953125 -27.0625 L 28.484375 0.046875 L 25.0625 0.046875 L 21.4375 -8.65625 L 11.21875 -8.65625 L 8.421875 -1.96875 C 8.128906 -1.257812 7.640625 -0.691406 6.953125 -0.265625 C 6.273438 0.148438 5.582031 0.359375 4.875 0.359375 Z M 20.109375 -11.5625 L 16.328125 -21.5625 L 16.25 -22.15625 L 16.203125 -21.5625 L 12.390625 -11.5625 Z M 20.109375 -11.5625 "/></g></g><g style="fill:#ffffff;fill-opacity:1;"><g transform="translate(475.47338, 247.437375)"><path style="stroke:none" d="M 5.109375 -23.09375 C 5.109375 -23.488281 5.003906 -23.835938 4.796875 -24.140625 C 4.585938 -24.441406 4.257812 -24.59375 3.8125 -24.59375 C 3.1875 -24.59375 2.726562 -24.367188 2.4375 -23.921875 L 0.28125 -25.53125 C 0.539062 -26.0625 0.976562 -26.53125 1.59375 -26.9375 C 2.207031 -27.34375 2.988281 -27.546875 3.9375 -27.546875 C 5.320312 -27.546875 6.398438 -27.128906 7.171875 -26.296875 C 7.953125 -25.472656 8.34375 -24.40625 8.34375 -23.09375 L 8.34375 -15.0625 L 9.515625 -15.109375 C 10.429688 -15.128906 11.191406 -15.285156 11.796875 -15.578125 C 12.273438 -15.785156 12.648438 -15.988281 12.921875 -16.1875 C 13.203125 -16.382812 13.457031 -16.628906 13.6875 -16.921875 C 14.34375 -17.734375 15.195312 -19.046875 16.25 -20.859375 C 17.09375 -22.273438 18.140625 -24.316406 19.390625 -26.984375 L 22.9375 -26.984375 C 20.65625 -22.710938 19.226562 -20.066406 18.65625 -19.046875 C 17.8125 -17.578125 17.128906 -16.472656 16.609375 -15.734375 C 16.210938 -15.160156 15.847656 -14.707031 15.515625 -14.375 C 15.191406 -14.050781 14.925781 -13.796875 14.71875 -13.609375 L 21.875 -3.46875 C 22.082031 -3.175781 22.265625 -2.984375 22.421875 -2.890625 C 22.578125 -2.796875 22.789062 -2.75 23.0625 -2.75 C 23.34375 -2.75 23.578125 -2.90625 23.765625 -3.21875 L 26.203125 -1.5 C 25.835938 -0.914062 25.351562 -0.46875 24.75 -0.15625 C 24.144531 0.15625 23.582031 0.3125 23.0625 0.3125 C 22.375 0.3125 21.722656 0.160156 21.109375 -0.140625 C 20.492188 -0.441406 20.015625 -0.84375 19.671875 -1.34375 L 11.953125 -12.28125 C 11.378906 -12.125 10.851562 -12.015625 10.375 -11.953125 C 9.90625 -11.898438 9.253906 -11.890625 8.421875 -11.921875 L 8.421875 0 L 5.109375 0 Z M 5.109375 -23.09375 "/></g></g><g style="fill:#ffffff;fill-opacity:1;"><g transform="translate(508.67061, 247.437375)"><path style="stroke:none" d="M 6.140625 -23.921875 C 5.453125 -23.921875 4.976562 -23.800781 4.71875 -23.5625 C 4.425781 -23.332031 4.253906 -22.898438 4.203125 -22.265625 L 1.265625 -22.3125 C 1.265625 -23.882812 1.75 -25.085938 2.71875 -25.921875 C 3.5 -26.628906 4.648438 -26.984375 6.171875 -26.984375 L 23.765625 -26.984375 L 23.765625 -24 L 9.359375 -24 L 9.359375 -15.78125 L 19.203125 -15.78125 L 19.203125 -12.78125 L 9.359375 -12.78125 L 9.359375 -2.953125 L 23.765625 -2.953125 L 23.765625 0.046875 L 6.140625 0.046875 Z M 6.140625 -23.921875 "/></g></g><g style="fill:#ffffff;fill-opacity:1;"><g transform="translate(542.182924, 247.437375)"><path style="stroke:none" d="M 6.140625 -23.921875 C 5.453125 -23.921875 4.976562 -23.800781 4.71875 -23.5625 C 4.425781 -23.332031 4.253906 -22.898438 4.203125 -22.265625 L 1.265625 -22.3125 C 1.265625 -23.882812 1.75 -25.085938 2.71875 -25.921875 C 3.5 -26.628906 4.648438 -26.984375 6.171875 -26.984375 L 15.140625 -26.984375 C 16.398438 -26.984375 17.488281 -26.765625 18.40625 -26.328125 C 19.71875 -25.691406 20.78125 -24.664062 21.59375 -23.25 C 22.40625 -21.832031 22.8125 -20.300781 22.8125 -18.65625 C 22.8125 -17.257812 22.5 -15.984375 21.875 -14.828125 C 21.25 -13.671875 20.367188 -12.742188 19.234375 -12.046875 C 18.921875 -11.859375 18.515625 -11.695312 18.015625 -11.5625 C 17.515625 -11.4375 17.03125 -11.375 16.5625 -11.375 C 16.976562 -11.21875 17.382812 -10.890625 17.78125 -10.390625 L 19.078125 -8.734375 L 23.140625 -3.03125 C 23.347656 -2.738281 23.59375 -2.59375 23.875 -2.59375 C 24.269531 -2.59375 24.546875 -2.800781 24.703125 -3.21875 L 27.1875 -1.5 C 26.820312 -0.914062 26.328125 -0.453125 25.703125 -0.109375 C 25.085938 0.222656 24.441406 0.390625 23.765625 0.390625 C 23.128906 0.390625 22.535156 0.25 21.984375 -0.03125 C 21.441406 -0.320312 20.972656 -0.734375 20.578125 -1.265625 L 16.046875 -7.546875 C 15.890625 -7.765625 15.59375 -8.179688 15.15625 -8.796875 C 14.726562 -9.410156 14.242188 -9.84375 13.703125 -10.09375 C 13.171875 -10.34375 12.472656 -10.492188 11.609375 -10.546875 L 11.609375 -13.578125 L 14.59375 -13.578125 C 16.144531 -13.578125 17.363281 -14.023438 18.25 -14.921875 C 19.144531 -15.828125 19.59375 -17.070312 19.59375 -18.65625 C 19.59375 -20.226562 19.164062 -21.519531 18.3125 -22.53125 C 17.457031 -23.539062 16.363281 -24.046875 15.03125 -24.046875 L 9.359375 -24.046875 L 9.359375 0.046875 L 6.140625 0.046875 Z M 6.140625 -23.921875 "/></g></g><g style="fill:#ffffff;fill-opacity:1;"><g transform="translate(577.543625, 247.437375)"><path style="stroke:none" d="M 10.984375 0.78125 C 8.515625 0.78125 6.382812 0.109375 4.59375 -1.234375 C 2.8125 -2.585938 1.703125 -4.351562 1.265625 -6.53125 L 3.96875 -7.71875 C 4.34375 -6.082031 5.175781 -4.753906 6.46875 -3.734375 C 7.769531 -2.710938 9.300781 -2.203125 11.0625 -2.203125 C 12.894531 -2.203125 14.394531 -2.734375 15.5625 -3.796875 C 16.726562 -4.859375 17.3125 -6.226562 17.3125 -7.90625 C 17.3125 -8.769531 17.140625 -9.5 16.796875 -10.09375 C 16.453125 -10.6875 15.859375 -11.242188 15.015625 -11.765625 C 14.179688 -12.285156 12.992188 -12.863281 11.453125 -13.5 C 8.828125 -14.570312 6.9375 -15.691406 5.78125 -16.859375 C 4.625 -18.023438 4.046875 -19.394531 4.046875 -20.96875 C 4.046875 -22.226562 4.378906 -23.375 5.046875 -24.40625 C 5.722656 -25.445312 6.632812 -26.257812 7.78125 -26.84375 C 8.9375 -27.4375 10.222656 -27.734375 11.640625 -27.734375 C 12.878906 -27.734375 14.003906 -27.507812 15.015625 -27.0625 C 16.023438 -26.625 16.820312 -26.015625 17.40625 -25.234375 C 18 -24.460938 18.296875 -23.617188 18.296875 -22.703125 C 18.296875 -21.578125 17.925781 -20.660156 17.1875 -19.953125 C 16.457031 -19.242188 15.53125 -18.890625 14.40625 -18.890625 C 14.0625 -18.890625 13.796875 -18.898438 13.609375 -18.921875 L 13.84375 -21.59375 C 14 -21.539062 14.117188 -21.515625 14.203125 -21.515625 C 14.460938 -21.515625 14.691406 -21.625 14.890625 -21.84375 C 15.085938 -22.070312 15.1875 -22.34375 15.1875 -22.65625 C 15.1875 -23.238281 14.84375 -23.734375 14.15625 -24.140625 C 13.476562 -24.546875 12.664062 -24.75 11.71875 -24.75 C 10.519531 -24.75 9.472656 -24.394531 8.578125 -23.6875 C 7.679688 -22.976562 7.234375 -22.125 7.234375 -21.125 C 7.234375 -20.238281 7.679688 -19.40625 8.578125 -18.625 C 9.472656 -17.851562 10.835938 -17.085938 12.671875 -16.328125 C 15.472656 -15.171875 17.488281 -13.941406 18.71875 -12.640625 C 19.957031 -11.347656 20.578125 -9.785156 20.578125 -7.953125 C 20.578125 -6.296875 20.15625 -4.804688 19.3125 -3.484375 C 18.476562 -2.160156 17.332031 -1.117188 15.875 -0.359375 C 14.414062 0.398438 12.785156 0.78125 10.984375 0.78125 Z M 10.984375 0.78125 "/></g></g><g style="fill:#262261;fill-opacity:1;"><g transform="translate(48.165293, 123.300318)"><path style="stroke:none" d="M 29.625 -39.640625 C 30.1875 -39.640625 30.832031 -39.738281 31.5625 -39.9375 C 32.289062 -40.144531 32.898438 -40.53125 33.390625 -41.09375 L 34.96875 -27.921875 L 33.6875 -27.734375 C 33.28125 -28.785156 32.691406 -29.816406 31.921875 -30.828125 C 31.160156 -31.847656 30.269531 -32.738281 29.25 -33.5 C 28.238281 -34.269531 27.132812 -34.890625 25.9375 -35.359375 C 24.75 -35.828125 23.53125 -36.0625 22.28125 -36.0625 C 21.550781 -36.0625 20.789062 -35.96875 20 -35.78125 C 19.207031 -35.601562 18.488281 -35.320312 17.84375 -34.9375 C 17.195312 -34.550781 16.660156 -34.050781 16.234375 -33.4375 C 15.804688 -32.832031 15.59375 -32.109375 15.59375 -31.265625 C 15.59375 -30.691406 15.691406 -30.191406 15.890625 -29.765625 C 16.097656 -29.347656 16.445312 -28.96875 16.9375 -28.625 C 17.425781 -28.28125 18.070312 -27.953125 18.875 -27.640625 C 19.6875 -27.335938 20.695312 -27.007812 21.90625 -26.65625 L 29.015625 -24.53125 C 30.429688 -24.082031 31.753906 -23.515625 32.984375 -22.828125 C 34.222656 -22.140625 35.296875 -21.316406 36.203125 -20.359375 C 37.117188 -19.410156 37.828125 -18.367188 38.328125 -17.234375 C 38.835938 -16.109375 39.09375 -14.914062 39.09375 -13.65625 C 39.09375 -8.882812 37.410156 -5.253906 34.046875 -2.765625 C 30.691406 -0.273438 25.675781 0.96875 19 0.96875 C 17.300781 0.96875 15.710938 0.863281 14.234375 0.65625 C 12.753906 0.457031 11.507812 0.257812 10.5 0.0625 C 9.8125 -0.0625 9.113281 -0.191406 8.40625 -0.328125 C 7.695312 -0.472656 7.0625 -0.546875 6.5 -0.546875 C 5.925781 -0.546875 5.375 -0.441406 4.84375 -0.234375 C 4.320312 -0.0351562 3.78125 0.34375 3.21875 0.90625 L 1.875 -16.03125 L 3.21875 -16.203125 C 3.5 -14.421875 4.050781 -12.78125 4.875 -11.28125 C 5.707031 -9.789062 6.75 -8.5 8 -7.40625 C 9.257812 -6.3125 10.6875 -5.453125 12.28125 -4.828125 C 13.882812 -4.203125 15.597656 -3.890625 17.421875 -3.890625 C 19.117188 -3.890625 20.523438 -4.050781 21.640625 -4.375 C 22.753906 -4.695312 23.65625 -5.128906 24.34375 -5.671875 C 25.03125 -6.222656 25.515625 -6.863281 25.796875 -7.59375 C 26.078125 -8.320312 26.21875 -9.085938 26.21875 -9.890625 C 26.21875 -10.253906 26.15625 -10.628906 26.03125 -11.015625 C 25.914062 -11.398438 25.65625 -11.804688 25.25 -12.234375 C 24.84375 -12.660156 24.234375 -13.09375 23.421875 -13.53125 C 22.617188 -13.976562 21.53125 -14.425781 20.15625 -14.875 L 13.65625 -17 C 11.71875 -17.601562 10.066406 -18.25 8.703125 -18.9375 C 7.347656 -19.625 6.269531 -20.492188 5.46875 -21.546875 C 4.78125 -22.398438 4.234375 -23.332031 3.828125 -24.34375 C 3.421875 -25.351562 3.21875 -26.445312 3.21875 -27.625 C 3.21875 -29.644531 3.5625 -31.460938 4.25 -33.078125 C 4.9375 -34.703125 5.988281 -36.097656 7.40625 -37.265625 C 8.738281 -38.359375 10.351562 -39.238281 12.25 -39.90625 C 14.15625 -40.570312 16.265625 -40.90625 18.578125 -40.90625 C 20.679688 -40.90625 22.550781 -40.785156 24.1875 -40.546875 C 25.832031 -40.304688 27.097656 -40.082031 27.984375 -39.875 C 28.753906 -39.71875 29.300781 -39.640625 29.625 -39.640625 Z M 29.625 -39.640625 "/></g></g><g style="fill:#262261;fill-opacity:1;"><g transform="translate(86.396548, 123.300318)"><path style="stroke:none" d="M 20.390625 -31.875 L 16.140625 -19.25 C 18.242188 -19.207031 20.113281 -18.847656 21.75 -18.171875 C 23.394531 -17.503906 24.601562 -16.890625 25.375 -16.328125 Z M 33.453125 -39.9375 L 33.453125 -38.421875 C 33.003906 -38.335938 32.65625 -38.195312 32.40625 -38 C 32.164062 -37.800781 32.046875 -37.457031 32.046875 -36.96875 C 32.046875 -36.925781 32.066406 -36.800781 32.109375 -36.59375 C 32.148438 -36.394531 32.238281 -36.0625 32.375 -35.59375 C 32.519531 -35.132812 32.722656 -34.488281 32.984375 -33.65625 C 33.253906 -32.832031 33.609375 -31.769531 34.046875 -30.46875 L 41.828125 -7.53125 C 42.023438 -6.914062 42.242188 -6.273438 42.484375 -5.609375 C 42.734375 -4.941406 43.039062 -4.320312 43.40625 -3.75 C 43.769531 -3.1875 44.203125 -2.691406 44.703125 -2.265625 C 45.210938 -1.847656 45.832031 -1.597656 46.5625 -1.515625 L 46.5625 0 L 25.609375 0 L 25.609375 -1.515625 C 26.585938 -1.597656 27.390625 -1.941406 28.015625 -2.546875 C 28.640625 -3.148438 28.953125 -3.976562 28.953125 -5.03125 C 28.953125 -6.613281 28.476562 -8.03125 27.53125 -9.28125 C 26.582031 -10.539062 25.398438 -11.613281 23.984375 -12.5 C 22.566406 -13.394531 21.023438 -14.070312 19.359375 -14.53125 C 17.703125 -15 16.144531 -15.253906 14.6875 -15.296875 L 12.5 -9.109375 C 12.5 -9.066406 12.4375 -8.863281 12.3125 -8.5 C 12.195312 -8.132812 12.066406 -7.695312 11.921875 -7.1875 C 11.785156 -6.6875 11.65625 -6.160156 11.53125 -5.609375 C 11.40625 -5.066406 11.34375 -4.59375 11.34375 -4.1875 C 11.34375 -3.332031 11.578125 -2.691406 12.046875 -2.265625 C 12.515625 -1.847656 13.210938 -1.597656 14.140625 -1.515625 L 14.140625 0 L 0.796875 0 L 0.796875 -1.515625 C 1.597656 -1.679688 2.289062 -1.992188 2.875 -2.453125 C 3.46875 -2.921875 3.972656 -3.46875 4.390625 -4.09375 C 4.816406 -4.71875 5.191406 -5.394531 5.515625 -6.125 C 5.847656 -6.851562 6.15625 -7.582031 6.4375 -8.3125 L 16.03125 -33.453125 C 16.425781 -34.503906 16.695312 -35.257812 16.84375 -35.71875 C 16.988281 -36.1875 17.0625 -36.582031 17.0625 -36.90625 C 17.0625 -37.800781 16.613281 -38.304688 15.71875 -38.421875 L 15.71875 -39.9375 Z M 33.453125 -39.9375 "/></g></g><g style="fill:#262261;fill-opacity:1;"><g transform="translate(133.730899, 123.300318)"><path style="stroke:none" d="M 23.609375 -39.9375 L 23.609375 -38.421875 C 22.878906 -38.378906 22.375 -38.1875 22.09375 -37.84375 C 21.8125 -37.5 21.671875 -37.144531 21.671875 -36.78125 C 21.671875 -36.257812 21.929688 -35.601562 22.453125 -34.8125 C 22.984375 -34.019531 23.53125 -33.320312 24.09375 -32.71875 L 31.140625 -24.703125 L 31.140625 -32.59375 C 31.140625 -33.925781 31.003906 -34.976562 30.734375 -35.75 C 30.472656 -36.519531 30.160156 -37.109375 29.796875 -37.515625 C 29.441406 -37.921875 29.050781 -38.171875 28.625 -38.265625 C 28.195312 -38.367188 27.800781 -38.421875 27.4375 -38.421875 L 27.4375 -39.9375 L 39.640625 -39.9375 L 39.640625 -38.421875 C 39.191406 -38.421875 38.773438 -38.359375 38.390625 -38.234375 C 38.003906 -38.117188 37.648438 -37.859375 37.328125 -37.453125 C 37.003906 -37.046875 36.75 -36.457031 36.5625 -35.6875 C 36.382812 -34.925781 36.296875 -33.914062 36.296875 -32.65625 L 36.296875 -7.34375 C 36.296875 -6.050781 36.382812 -5.03125 36.5625 -4.28125 C 36.75 -3.53125 36.992188 -2.960938 37.296875 -2.578125 C 37.597656 -2.191406 37.953125 -1.925781 38.359375 -1.78125 C 38.765625 -1.644531 39.191406 -1.578125 39.640625 -1.578125 L 39.640625 -0.0625 L 27.4375 -0.0625 L 27.4375 -1.515625 C 28.40625 -1.679688 29.160156 -2.046875 29.703125 -2.609375 C 30.253906 -3.171875 30.53125 -3.960938 30.53125 -4.984375 C 30.53125 -6.398438 30.195312 -7.601562 29.53125 -8.59375 C 28.863281 -9.582031 28.125 -10.5625 27.3125 -11.53125 L 8.921875 -32.71875 L 8.921875 -7.28125 C 8.921875 -6.03125 9.007812 -5.019531 9.1875 -4.25 C 9.375 -3.476562 9.617188 -2.890625 9.921875 -2.484375 C 10.222656 -2.078125 10.566406 -1.8125 10.953125 -1.6875 C 11.335938 -1.570312 11.753906 -1.515625 12.203125 -1.515625 L 12.203125 0 L 0.421875 0 L 0.421875 -1.515625 C 0.828125 -1.515625 1.234375 -1.570312 1.640625 -1.6875 C 2.046875 -1.8125 2.410156 -2.078125 2.734375 -2.484375 C 3.054688 -2.890625 3.304688 -3.476562 3.484375 -4.25 C 3.671875 -5.019531 3.765625 -6.03125 3.765625 -7.28125 L 3.765625 -32.65625 C 3.765625 -33.914062 3.660156 -34.925781 3.453125 -35.6875 C 3.253906 -36.457031 3.003906 -37.046875 2.703125 -37.453125 C 2.398438 -37.859375 2.046875 -38.117188 1.640625 -38.234375 C 1.234375 -38.359375 0.828125 -38.421875 0.421875 -38.421875 L 0.421875 -39.9375 Z M 23.609375 -39.9375 "/></g></g><g style="fill:#262261;fill-opacity:1;"><g transform="translate(173.783044, 123.300318)"><path style="stroke:none" d="M 20.390625 -31.875 L 16.140625 -19.25 C 18.242188 -19.207031 20.113281 -18.847656 21.75 -18.171875 C 23.394531 -17.503906 24.601562 -16.890625 25.375 -16.328125 Z M 33.453125 -39.9375 L 33.453125 -38.421875 C 33.003906 -38.335938 32.65625 -38.195312 32.40625 -38 C 32.164062 -37.800781 32.046875 -37.457031 32.046875 -36.96875 C 32.046875 -36.925781 32.066406 -36.800781 32.109375 -36.59375 C 32.148438 -36.394531 32.238281 -36.0625 32.375 -35.59375 C 32.519531 -35.132812 32.722656 -34.488281 32.984375 -33.65625 C 33.253906 -32.832031 33.609375 -31.769531 34.046875 -30.46875 L 41.828125 -7.53125 C 42.023438 -6.914062 42.242188 -6.273438 42.484375 -5.609375 C 42.734375 -4.941406 43.039062 -4.320312 43.40625 -3.75 C 43.769531 -3.1875 44.203125 -2.691406 44.703125 -2.265625 C 45.210938 -1.847656 45.832031 -1.597656 46.5625 -1.515625 L 46.5625 0 L 25.609375 0 L 25.609375 -1.515625 C 26.585938 -1.597656 27.390625 -1.941406 28.015625 -2.546875 C 28.640625 -3.148438 28.953125 -3.976562 28.953125 -5.03125 C 28.953125 -6.613281 28.476562 -8.03125 27.53125 -9.28125 C 26.582031 -10.539062 25.398438 -11.613281 23.984375 -12.5 C 22.566406 -13.394531 21.023438 -14.070312 19.359375 -14.53125 C 17.703125 -15 16.144531 -15.253906 14.6875 -15.296875 L 12.5 -9.109375 C 12.5 -9.066406 12.4375 -8.863281 12.3125 -8.5 C 12.195312 -8.132812 12.066406 -7.695312 11.921875 -7.1875 C 11.785156 -6.6875 11.65625 -6.160156 11.53125 -5.609375 C 11.40625 -5.066406 11.34375 -4.59375 11.34375 -4.1875 C 11.34375 -3.332031 11.578125 -2.691406 12.046875 -2.265625 C 12.515625 -1.847656 13.210938 -1.597656 14.140625 -1.515625 L 14.140625 0 L 0.796875 0 L 0.796875 -1.515625 C 1.597656 -1.679688 2.289062 -1.992188 2.875 -2.453125 C 3.46875 -2.921875 3.972656 -3.46875 4.390625 -4.09375 C 4.816406 -4.71875 5.191406 -5.394531 5.515625 -6.125 C 5.847656 -6.851562 6.15625 -7.582031 6.4375 -8.3125 L 16.03125 -33.453125 C 16.425781 -34.503906 16.695312 -35.257812 16.84375 -35.71875 C 16.988281 -36.1875 17.0625 -36.582031 17.0625 -36.90625 C 17.0625 -37.800781 16.613281 -38.304688 15.71875 -38.421875 L 15.71875 -39.9375 Z M 33.453125 -39.9375 "/></g></g></g></svg>